<mxfile host="app.diagrams.net" modified="2021-02-17T17:13:31.497Z" agent="5.0 (Macintosh; Intel Mac OS X 10_12_6) AppleWebKit/537.36 (KHTML, like Gecko) Chrome/88.0.4324.150 Safari/537.36" etag="RmApmG14awKGBV1arnWK" version="14.3.2" type="github" pages="2">
  <diagram id="C5RBs43oDa-KdzZeNtuy" name="Page-1">
    <mxGraphModel dx="1188" dy="595" grid="1" gridSize="10" guides="1" tooltips="1" connect="1" arrows="1" fold="1" page="1" pageScale="1" pageWidth="827" pageHeight="1169" math="0" shadow="0">
      <root>
        <mxCell id="WIyWlLk6GJQsqaUBKTNV-0" />
        <mxCell id="WIyWlLk6GJQsqaUBKTNV-1" parent="WIyWlLk6GJQsqaUBKTNV-0" />
        <mxCell id="I_8_5JJbdPGwPO8MQidX-211" value="" style="edgeStyle=entityRelationEdgeStyle;endArrow=ERmany;startArrow=none;endFill=0;startFill=0;rounded=0;" edge="1" parent="WIyWlLk6GJQsqaUBKTNV-1" source="I_8_5JJbdPGwPO8MQidX-213" target="I_8_5JJbdPGwPO8MQidX-216">
          <mxGeometry width="100" height="100" relative="1" as="geometry">
            <mxPoint x="1448.5" y="410" as="sourcePoint" />
            <mxPoint x="1478.5" y="410" as="targetPoint" />
          </mxGeometry>
        </mxCell>
        <mxCell id="I_8_5JJbdPGwPO8MQidX-212" value="" style="edgeStyle=entityRelationEdgeStyle;endArrow=none;startArrow=ERone;endFill=0;startFill=0;rounded=0;exitX=1;exitY=0.5;exitDx=0;exitDy=0;" edge="1" parent="WIyWlLk6GJQsqaUBKTNV-1" source="I_8_5JJbdPGwPO8MQidX-223" target="I_8_5JJbdPGwPO8MQidX-213">
          <mxGeometry width="100" height="100" relative="1" as="geometry">
            <mxPoint x="1278.5" y="410" as="sourcePoint" />
            <mxPoint x="1328.5" y="410" as="targetPoint" />
          </mxGeometry>
        </mxCell>
        <mxCell id="I_8_5JJbdPGwPO8MQidX-213" value="prestar" style="shape=rhombus;perimeter=rhombusPerimeter;whiteSpace=wrap;html=1;align=center;" vertex="1" parent="WIyWlLk6GJQsqaUBKTNV-1">
          <mxGeometry x="1238.5" y="375" width="90" height="50" as="geometry" />
        </mxCell>
        <mxCell id="I_8_5JJbdPGwPO8MQidX-214" value="" style="edgeStyle=orthogonalEdgeStyle;rounded=0;orthogonalLoop=1;jettySize=auto;html=1;startArrow=none;startFill=0;endArrow=none;endFill=0;strokeColor=#000000;exitX=0.13;exitY=-0.05;exitDx=0;exitDy=0;exitPerimeter=0;" edge="1" parent="WIyWlLk6GJQsqaUBKTNV-1" source="I_8_5JJbdPGwPO8MQidX-216" target="I_8_5JJbdPGwPO8MQidX-245">
          <mxGeometry relative="1" as="geometry" />
        </mxCell>
        <mxCell id="I_8_5JJbdPGwPO8MQidX-215" style="edgeStyle=orthogonalEdgeStyle;rounded=0;orthogonalLoop=1;jettySize=auto;html=1;exitX=0.25;exitY=0;exitDx=0;exitDy=0;entryX=0.5;entryY=1;entryDx=0;entryDy=0;startArrow=none;startFill=0;endArrow=none;endFill=0;strokeColor=#000000;" edge="1" parent="WIyWlLk6GJQsqaUBKTNV-1" source="I_8_5JJbdPGwPO8MQidX-216" target="I_8_5JJbdPGwPO8MQidX-246">
          <mxGeometry relative="1" as="geometry">
            <Array as="points">
              <mxPoint x="1408.5" y="380" />
              <mxPoint x="1408.5" y="320" />
            </Array>
          </mxGeometry>
        </mxCell>
        <mxCell id="I_8_5JJbdPGwPO8MQidX-216" value="PRESTAMOS" style="whiteSpace=wrap;html=1;align=center;" vertex="1" parent="WIyWlLk6GJQsqaUBKTNV-1">
          <mxGeometry x="1368.5" y="380" width="100" height="40" as="geometry" />
        </mxCell>
        <mxCell id="I_8_5JJbdPGwPO8MQidX-217" style="edgeStyle=orthogonalEdgeStyle;rounded=0;orthogonalLoop=1;jettySize=auto;html=1;entryX=0.5;entryY=1;entryDx=0;entryDy=0;endArrow=ERzeroToMany;endFill=1;" edge="1" parent="WIyWlLk6GJQsqaUBKTNV-1" source="I_8_5JJbdPGwPO8MQidX-273" target="I_8_5JJbdPGwPO8MQidX-216">
          <mxGeometry relative="1" as="geometry" />
        </mxCell>
        <mxCell id="I_8_5JJbdPGwPO8MQidX-218" value="SOCIOS" style="whiteSpace=wrap;html=1;align=center;" vertex="1" parent="WIyWlLk6GJQsqaUBKTNV-1">
          <mxGeometry x="1368.5" y="510" width="100" height="40" as="geometry" />
        </mxCell>
        <mxCell id="I_8_5JJbdPGwPO8MQidX-219" value="" style="edgeStyle=orthogonalEdgeStyle;rounded=0;orthogonalLoop=1;jettySize=auto;html=1;startArrow=none;startFill=0;endArrow=ERone;endFill=0;strokeColor=#000000;entryX=1;entryY=0.5;entryDx=0;entryDy=0;exitX=0;exitY=0.5;exitDx=0;exitDy=0;" edge="1" parent="WIyWlLk6GJQsqaUBKTNV-1" source="I_8_5JJbdPGwPO8MQidX-278" target="I_8_5JJbdPGwPO8MQidX-224">
          <mxGeometry relative="1" as="geometry">
            <mxPoint x="935" y="300" as="targetPoint" />
            <mxPoint x="1065.5" y="404" as="sourcePoint" />
            <Array as="points" />
          </mxGeometry>
        </mxCell>
        <mxCell id="I_8_5JJbdPGwPO8MQidX-220" value="" style="edgeStyle=orthogonalEdgeStyle;rounded=0;orthogonalLoop=1;jettySize=auto;html=1;startArrow=none;startFill=0;endArrow=none;endFill=0;strokeColor=#000000;exitX=0.25;exitY=0;exitDx=0;exitDy=0;" edge="1" parent="WIyWlLk6GJQsqaUBKTNV-1" source="I_8_5JJbdPGwPO8MQidX-223" target="I_8_5JJbdPGwPO8MQidX-242">
          <mxGeometry relative="1" as="geometry" />
        </mxCell>
        <mxCell id="I_8_5JJbdPGwPO8MQidX-221" value="" style="edgeStyle=orthogonalEdgeStyle;rounded=0;orthogonalLoop=1;jettySize=auto;html=1;startArrow=none;startFill=0;endArrow=none;endFill=0;strokeColor=#000000;entryX=0.5;entryY=1;entryDx=0;entryDy=0;" edge="1" parent="WIyWlLk6GJQsqaUBKTNV-1" source="I_8_5JJbdPGwPO8MQidX-223" target="I_8_5JJbdPGwPO8MQidX-243">
          <mxGeometry relative="1" as="geometry">
            <mxPoint x="1158.5" y="340" as="targetPoint" />
            <Array as="points">
              <mxPoint x="1178.5" y="370" />
              <mxPoint x="1178.5" y="370" />
            </Array>
          </mxGeometry>
        </mxCell>
        <mxCell id="I_8_5JJbdPGwPO8MQidX-222" style="edgeStyle=orthogonalEdgeStyle;rounded=0;orthogonalLoop=1;jettySize=auto;html=1;exitX=1;exitY=0;exitDx=0;exitDy=0;entryX=0.5;entryY=1;entryDx=0;entryDy=0;startArrow=none;startFill=0;endArrow=none;endFill=0;strokeColor=#000000;" edge="1" parent="WIyWlLk6GJQsqaUBKTNV-1" source="I_8_5JJbdPGwPO8MQidX-223" target="I_8_5JJbdPGwPO8MQidX-244">
          <mxGeometry relative="1" as="geometry">
            <Array as="points">
              <mxPoint x="1198.5" y="370" />
              <mxPoint x="1228.5" y="370" />
              <mxPoint x="1228.5" y="355" />
            </Array>
          </mxGeometry>
        </mxCell>
        <mxCell id="I_8_5JJbdPGwPO8MQidX-223" value="COPIAS" style="shape=ext;margin=3;double=1;whiteSpace=wrap;html=1;align=center;" vertex="1" parent="WIyWlLk6GJQsqaUBKTNV-1">
          <mxGeometry x="1098.5" y="380" width="100" height="40" as="geometry" />
        </mxCell>
        <mxCell id="I_8_5JJbdPGwPO8MQidX-224" value="OBRAS" style="whiteSpace=wrap;html=1;align=center;" vertex="1" parent="WIyWlLk6GJQsqaUBKTNV-1">
          <mxGeometry x="832.5" y="383.75" width="100" height="40" as="geometry" />
        </mxCell>
        <mxCell id="I_8_5JJbdPGwPO8MQidX-225" style="edgeStyle=orthogonalEdgeStyle;rounded=0;orthogonalLoop=1;jettySize=auto;html=1;exitX=0.5;exitY=1;exitDx=0;exitDy=0;endArrow=none;endFill=0;" edge="1" parent="WIyWlLk6GJQsqaUBKTNV-1" source="I_8_5JJbdPGwPO8MQidX-226" target="I_8_5JJbdPGwPO8MQidX-224">
          <mxGeometry relative="1" as="geometry">
            <Array as="points">
              <mxPoint x="770.5" y="483.75" />
              <mxPoint x="882.5" y="483.75" />
            </Array>
          </mxGeometry>
        </mxCell>
        <mxCell id="I_8_5JJbdPGwPO8MQidX-226" value="CD&#39;s" style="whiteSpace=wrap;html=1;align=center;" vertex="1" parent="WIyWlLk6GJQsqaUBKTNV-1">
          <mxGeometry x="735" y="503.75" width="70" height="30" as="geometry" />
        </mxCell>
        <mxCell id="I_8_5JJbdPGwPO8MQidX-227" style="edgeStyle=orthogonalEdgeStyle;rounded=0;orthogonalLoop=1;jettySize=auto;html=1;exitX=0.5;exitY=0;exitDx=0;exitDy=0;entryX=0.5;entryY=1;entryDx=0;entryDy=0;startArrow=none;startFill=0;endArrow=none;endFill=0;" edge="1" parent="WIyWlLk6GJQsqaUBKTNV-1" source="I_8_5JJbdPGwPO8MQidX-228" target="I_8_5JJbdPGwPO8MQidX-224">
          <mxGeometry relative="1" as="geometry">
            <Array as="points">
              <mxPoint x="987.5" y="483.75" />
              <mxPoint x="882.5" y="483.75" />
            </Array>
          </mxGeometry>
        </mxCell>
        <mxCell id="I_8_5JJbdPGwPO8MQidX-228" value="PELICULAS" style="whiteSpace=wrap;html=1;align=center;" vertex="1" parent="WIyWlLk6GJQsqaUBKTNV-1">
          <mxGeometry x="947.5" y="503.75" width="80" height="30" as="geometry" />
        </mxCell>
        <mxCell id="I_8_5JJbdPGwPO8MQidX-229" value="AUTORES" style="whiteSpace=wrap;html=1;align=center;" vertex="1" parent="WIyWlLk6GJQsqaUBKTNV-1">
          <mxGeometry x="835" y="260" width="100" height="40" as="geometry" />
        </mxCell>
        <mxCell id="I_8_5JJbdPGwPO8MQidX-230" style="edgeStyle=orthogonalEdgeStyle;rounded=0;orthogonalLoop=1;jettySize=auto;html=1;entryX=0;entryY=0.25;entryDx=0;entryDy=0;endArrow=none;endFill=0;" edge="1" parent="WIyWlLk6GJQsqaUBKTNV-1" source="I_8_5JJbdPGwPO8MQidX-231" target="I_8_5JJbdPGwPO8MQidX-229">
          <mxGeometry relative="1" as="geometry" />
        </mxCell>
        <mxCell id="I_8_5JJbdPGwPO8MQidX-231" value="&lt;u&gt;ID&lt;/u&gt;" style="ellipse;whiteSpace=wrap;html=1;" vertex="1" parent="WIyWlLk6GJQsqaUBKTNV-1">
          <mxGeometry x="756.25" y="260" width="40" height="30" as="geometry" />
        </mxCell>
        <mxCell id="I_8_5JJbdPGwPO8MQidX-232" style="edgeStyle=orthogonalEdgeStyle;rounded=0;orthogonalLoop=1;jettySize=auto;html=1;exitX=0;exitY=0.5;exitDx=0;exitDy=0;entryX=1;entryY=0.25;entryDx=0;entryDy=0;endArrow=none;endFill=0;" edge="1" parent="WIyWlLk6GJQsqaUBKTNV-1" source="I_8_5JJbdPGwPO8MQidX-233" target="I_8_5JJbdPGwPO8MQidX-229">
          <mxGeometry relative="1" as="geometry" />
        </mxCell>
        <mxCell id="I_8_5JJbdPGwPO8MQidX-233" value="nombre" style="ellipse;whiteSpace=wrap;html=1;align=center;" vertex="1" parent="WIyWlLk6GJQsqaUBKTNV-1">
          <mxGeometry x="967.5" y="240" width="60" height="30" as="geometry" />
        </mxCell>
        <mxCell id="I_8_5JJbdPGwPO8MQidX-234" style="edgeStyle=orthogonalEdgeStyle;rounded=0;orthogonalLoop=1;jettySize=auto;html=1;endArrow=none;endFill=0;" edge="1" parent="WIyWlLk6GJQsqaUBKTNV-1" source="I_8_5JJbdPGwPO8MQidX-235" target="I_8_5JJbdPGwPO8MQidX-229">
          <mxGeometry relative="1" as="geometry" />
        </mxCell>
        <mxCell id="I_8_5JJbdPGwPO8MQidX-235" value="país" style="ellipse;whiteSpace=wrap;html=1;" vertex="1" parent="WIyWlLk6GJQsqaUBKTNV-1">
          <mxGeometry x="962.5" y="280" width="50" height="30" as="geometry" />
        </mxCell>
        <mxCell id="I_8_5JJbdPGwPO8MQidX-236" style="edgeStyle=orthogonalEdgeStyle;rounded=0;orthogonalLoop=1;jettySize=auto;html=1;exitX=0.5;exitY=0;exitDx=0;exitDy=0;entryX=0.5;entryY=1;entryDx=0;entryDy=0;startArrow=none;startFill=0;endArrow=none;endFill=0;" edge="1" parent="WIyWlLk6GJQsqaUBKTNV-1" source="I_8_5JJbdPGwPO8MQidX-237" target="I_8_5JJbdPGwPO8MQidX-226">
          <mxGeometry relative="1" as="geometry" />
        </mxCell>
        <mxCell id="I_8_5JJbdPGwPO8MQidX-237" value="num_canciones" style="ellipse;whiteSpace=wrap;html=1;" vertex="1" parent="WIyWlLk6GJQsqaUBKTNV-1">
          <mxGeometry x="720" y="546.25" width="97.5" height="30" as="geometry" />
        </mxCell>
        <mxCell id="I_8_5JJbdPGwPO8MQidX-238" style="edgeStyle=orthogonalEdgeStyle;rounded=0;orthogonalLoop=1;jettySize=auto;html=1;exitX=0.5;exitY=0;exitDx=0;exitDy=0;entryX=0.5;entryY=1;entryDx=0;entryDy=0;startArrow=none;startFill=0;endArrow=none;endFill=0;" edge="1" parent="WIyWlLk6GJQsqaUBKTNV-1" source="I_8_5JJbdPGwPO8MQidX-239" target="I_8_5JJbdPGwPO8MQidX-272">
          <mxGeometry relative="1" as="geometry" />
        </mxCell>
        <mxCell id="I_8_5JJbdPGwPO8MQidX-239" value="num_paginas" style="ellipse;whiteSpace=wrap;html=1;" vertex="1" parent="WIyWlLk6GJQsqaUBKTNV-1">
          <mxGeometry x="843.75" y="551.25" width="77.5" height="25" as="geometry" />
        </mxCell>
        <mxCell id="I_8_5JJbdPGwPO8MQidX-240" style="edgeStyle=orthogonalEdgeStyle;rounded=0;orthogonalLoop=1;jettySize=auto;html=1;exitX=0.5;exitY=0;exitDx=0;exitDy=0;entryX=0.5;entryY=1;entryDx=0;entryDy=0;startArrow=none;startFill=0;endArrow=none;endFill=0;" edge="1" parent="WIyWlLk6GJQsqaUBKTNV-1" source="I_8_5JJbdPGwPO8MQidX-241" target="I_8_5JJbdPGwPO8MQidX-228">
          <mxGeometry relative="1" as="geometry" />
        </mxCell>
        <mxCell id="I_8_5JJbdPGwPO8MQidX-241" value="duración" style="ellipse;whiteSpace=wrap;html=1;" vertex="1" parent="WIyWlLk6GJQsqaUBKTNV-1">
          <mxGeometry x="960" y="546.25" width="60" height="30" as="geometry" />
        </mxCell>
        <mxCell id="I_8_5JJbdPGwPO8MQidX-242" value="deteriorado" style="ellipse;whiteSpace=wrap;html=1;" vertex="1" parent="WIyWlLk6GJQsqaUBKTNV-1">
          <mxGeometry x="1088.5" y="340" width="70" height="30" as="geometry" />
        </mxCell>
        <mxCell id="I_8_5JJbdPGwPO8MQidX-243" value="&lt;u&gt;num_copia&lt;/u&gt;" style="ellipse;whiteSpace=wrap;html=1;" vertex="1" parent="WIyWlLk6GJQsqaUBKTNV-1">
          <mxGeometry x="1143.5" y="310" width="70" height="30" as="geometry" />
        </mxCell>
        <mxCell id="I_8_5JJbdPGwPO8MQidX-244" value="comentario" style="ellipse;whiteSpace=wrap;html=1;" vertex="1" parent="WIyWlLk6GJQsqaUBKTNV-1">
          <mxGeometry x="1198.5" y="340" width="70" height="30" as="geometry" />
        </mxCell>
        <mxCell id="I_8_5JJbdPGwPO8MQidX-245" value="fecha_prestamo" style="ellipse;whiteSpace=wrap;html=1;" vertex="1" parent="WIyWlLk6GJQsqaUBKTNV-1">
          <mxGeometry x="1308.5" y="325" width="100" height="30" as="geometry" />
        </mxCell>
        <mxCell id="I_8_5JJbdPGwPO8MQidX-246" value="&lt;u&gt;id&lt;/u&gt;" style="ellipse;whiteSpace=wrap;html=1;" vertex="1" parent="WIyWlLk6GJQsqaUBKTNV-1">
          <mxGeometry x="1378.5" y="300" width="40" height="20" as="geometry" />
        </mxCell>
        <mxCell id="I_8_5JJbdPGwPO8MQidX-247" style="edgeStyle=orthogonalEdgeStyle;rounded=0;orthogonalLoop=1;jettySize=auto;html=1;exitX=0.5;exitY=1;exitDx=0;exitDy=0;entryX=0.5;entryY=0;entryDx=0;entryDy=0;startArrow=none;startFill=0;endArrow=none;endFill=0;strokeColor=#000000;" edge="1" parent="WIyWlLk6GJQsqaUBKTNV-1" source="I_8_5JJbdPGwPO8MQidX-248" target="I_8_5JJbdPGwPO8MQidX-216">
          <mxGeometry relative="1" as="geometry">
            <Array as="points">
              <mxPoint x="1463.5" y="330" />
              <mxPoint x="1418.5" y="330" />
            </Array>
          </mxGeometry>
        </mxCell>
        <mxCell id="I_8_5JJbdPGwPO8MQidX-248" value="fecha_max" style="ellipse;whiteSpace=wrap;html=1;" vertex="1" parent="WIyWlLk6GJQsqaUBKTNV-1">
          <mxGeometry x="1428.5" y="290" width="70" height="30" as="geometry" />
        </mxCell>
        <mxCell id="I_8_5JJbdPGwPO8MQidX-249" style="edgeStyle=orthogonalEdgeStyle;rounded=0;orthogonalLoop=1;jettySize=auto;html=1;exitX=0;exitY=1;exitDx=0;exitDy=0;startArrow=none;startFill=0;endArrow=none;endFill=0;entryX=0.75;entryY=0;entryDx=0;entryDy=0;" edge="1" parent="WIyWlLk6GJQsqaUBKTNV-1" source="I_8_5JJbdPGwPO8MQidX-250" target="I_8_5JJbdPGwPO8MQidX-216">
          <mxGeometry relative="1" as="geometry">
            <mxPoint x="1435.5" y="378" as="targetPoint" />
          </mxGeometry>
        </mxCell>
        <mxCell id="I_8_5JJbdPGwPO8MQidX-250" value="fecha_devolucion" style="ellipse;whiteSpace=wrap;html=1;" vertex="1" parent="WIyWlLk6GJQsqaUBKTNV-1">
          <mxGeometry x="1423.5" y="340" width="100" height="30" as="geometry" />
        </mxCell>
        <mxCell id="I_8_5JJbdPGwPO8MQidX-251" style="edgeStyle=orthogonalEdgeStyle;rounded=0;orthogonalLoop=1;jettySize=auto;html=1;exitX=1;exitY=0.5;exitDx=0;exitDy=0;entryX=0.11;entryY=0.975;entryDx=0;entryDy=0;entryPerimeter=0;startArrow=none;startFill=0;endArrow=none;endFill=0;strokeColor=#000000;" edge="1" parent="WIyWlLk6GJQsqaUBKTNV-1" source="I_8_5JJbdPGwPO8MQidX-252" target="I_8_5JJbdPGwPO8MQidX-218">
          <mxGeometry relative="1" as="geometry" />
        </mxCell>
        <mxCell id="I_8_5JJbdPGwPO8MQidX-252" value="&lt;u&gt;cod_socio&lt;/u&gt;" style="ellipse;whiteSpace=wrap;html=1;" vertex="1" parent="WIyWlLk6GJQsqaUBKTNV-1">
          <mxGeometry x="1303.5" y="545" width="60" height="30" as="geometry" />
        </mxCell>
        <mxCell id="I_8_5JJbdPGwPO8MQidX-253" style="edgeStyle=orthogonalEdgeStyle;rounded=0;orthogonalLoop=1;jettySize=auto;html=1;entryX=0.25;entryY=1;entryDx=0;entryDy=0;startArrow=none;startFill=0;endArrow=none;endFill=0;strokeColor=#000000;" edge="1" parent="WIyWlLk6GJQsqaUBKTNV-1" source="I_8_5JJbdPGwPO8MQidX-254" target="I_8_5JJbdPGwPO8MQidX-218">
          <mxGeometry relative="1" as="geometry">
            <Array as="points">
              <mxPoint x="1353.5" y="580" />
              <mxPoint x="1398.5" y="580" />
            </Array>
          </mxGeometry>
        </mxCell>
        <mxCell id="I_8_5JJbdPGwPO8MQidX-254" value="DNI" style="ellipse;whiteSpace=wrap;html=1;" vertex="1" parent="WIyWlLk6GJQsqaUBKTNV-1">
          <mxGeometry x="1333.5" y="585" width="40" height="20" as="geometry" />
        </mxCell>
        <mxCell id="I_8_5JJbdPGwPO8MQidX-255" style="edgeStyle=orthogonalEdgeStyle;rounded=0;orthogonalLoop=1;jettySize=auto;html=1;exitX=1;exitY=0;exitDx=0;exitDy=0;entryX=0.39;entryY=0.975;entryDx=0;entryDy=0;entryPerimeter=0;startArrow=none;startFill=0;endArrow=none;endFill=0;strokeColor=#000000;" edge="1" parent="WIyWlLk6GJQsqaUBKTNV-1" source="I_8_5JJbdPGwPO8MQidX-256" target="I_8_5JJbdPGwPO8MQidX-218">
          <mxGeometry relative="1" as="geometry" />
        </mxCell>
        <mxCell id="I_8_5JJbdPGwPO8MQidX-256" value="nombre" style="ellipse;whiteSpace=wrap;html=1;" vertex="1" parent="WIyWlLk6GJQsqaUBKTNV-1">
          <mxGeometry x="1348.5" y="620" width="50" height="30" as="geometry" />
        </mxCell>
        <mxCell id="I_8_5JJbdPGwPO8MQidX-257" style="edgeStyle=orthogonalEdgeStyle;rounded=0;orthogonalLoop=1;jettySize=auto;html=1;exitX=0;exitY=1;exitDx=0;exitDy=0;startArrow=none;startFill=0;endArrow=none;endFill=0;strokeColor=#000000;" edge="1" parent="WIyWlLk6GJQsqaUBKTNV-1" source="I_8_5JJbdPGwPO8MQidX-258" target="I_8_5JJbdPGwPO8MQidX-218">
          <mxGeometry relative="1" as="geometry" />
        </mxCell>
        <mxCell id="I_8_5JJbdPGwPO8MQidX-258" value="apellidos" style="ellipse;whiteSpace=wrap;html=1;" vertex="1" parent="WIyWlLk6GJQsqaUBKTNV-1">
          <mxGeometry x="1398.5" y="640" width="60" height="30" as="geometry" />
        </mxCell>
        <mxCell id="I_8_5JJbdPGwPO8MQidX-259" style="edgeStyle=orthogonalEdgeStyle;rounded=0;orthogonalLoop=1;jettySize=auto;html=1;exitX=0;exitY=0;exitDx=0;exitDy=0;entryX=0.59;entryY=0.975;entryDx=0;entryDy=0;entryPerimeter=0;startArrow=none;startFill=0;endArrow=none;endFill=0;strokeColor=#000000;" edge="1" parent="WIyWlLk6GJQsqaUBKTNV-1" source="I_8_5JJbdPGwPO8MQidX-260" target="I_8_5JJbdPGwPO8MQidX-218">
          <mxGeometry relative="1" as="geometry" />
        </mxCell>
        <mxCell id="I_8_5JJbdPGwPO8MQidX-260" value="dirección" style="ellipse;whiteSpace=wrap;html=1;" vertex="1" parent="WIyWlLk6GJQsqaUBKTNV-1">
          <mxGeometry x="1423.5" y="605" width="60" height="30" as="geometry" />
        </mxCell>
        <mxCell id="I_8_5JJbdPGwPO8MQidX-261" style="edgeStyle=orthogonalEdgeStyle;rounded=0;orthogonalLoop=1;jettySize=auto;html=1;exitX=0;exitY=0;exitDx=0;exitDy=0;entryX=0.75;entryY=1;entryDx=0;entryDy=0;startArrow=none;startFill=0;endArrow=none;endFill=0;strokeColor=#000000;" edge="1" parent="WIyWlLk6GJQsqaUBKTNV-1" source="I_8_5JJbdPGwPO8MQidX-262" target="I_8_5JJbdPGwPO8MQidX-218">
          <mxGeometry relative="1" as="geometry" />
        </mxCell>
        <mxCell id="I_8_5JJbdPGwPO8MQidX-262" value="teléfono" style="ellipse;whiteSpace=wrap;html=1;" vertex="1" parent="WIyWlLk6GJQsqaUBKTNV-1">
          <mxGeometry x="1458.5" y="575" width="55" height="25" as="geometry" />
        </mxCell>
        <mxCell id="I_8_5JJbdPGwPO8MQidX-263" style="edgeStyle=orthogonalEdgeStyle;rounded=0;orthogonalLoop=1;jettySize=auto;html=1;entryX=0;entryY=0.25;entryDx=0;entryDy=0;endArrow=none;endFill=0;" edge="1" parent="WIyWlLk6GJQsqaUBKTNV-1" source="I_8_5JJbdPGwPO8MQidX-264" target="I_8_5JJbdPGwPO8MQidX-224">
          <mxGeometry relative="1" as="geometry" />
        </mxCell>
        <mxCell id="I_8_5JJbdPGwPO8MQidX-264" value="&lt;u&gt;cod_obra&lt;/u&gt;" style="ellipse;whiteSpace=wrap;html=1;" vertex="1" parent="WIyWlLk6GJQsqaUBKTNV-1">
          <mxGeometry x="740" y="363.75" width="60" height="35" as="geometry" />
        </mxCell>
        <mxCell id="I_8_5JJbdPGwPO8MQidX-265" style="edgeStyle=orthogonalEdgeStyle;rounded=0;orthogonalLoop=1;jettySize=auto;html=1;exitX=1;exitY=0;exitDx=0;exitDy=0;entryX=0;entryY=0.5;entryDx=0;entryDy=0;endArrow=none;endFill=0;" edge="1" parent="WIyWlLk6GJQsqaUBKTNV-1" source="I_8_5JJbdPGwPO8MQidX-266" target="I_8_5JJbdPGwPO8MQidX-224">
          <mxGeometry relative="1" as="geometry" />
        </mxCell>
        <mxCell id="I_8_5JJbdPGwPO8MQidX-266" value="año" style="ellipse;whiteSpace=wrap;html=1;" vertex="1" parent="WIyWlLk6GJQsqaUBKTNV-1">
          <mxGeometry x="767.5" y="403.75" width="50" height="30" as="geometry" />
        </mxCell>
        <mxCell id="I_8_5JJbdPGwPO8MQidX-267" style="edgeStyle=orthogonalEdgeStyle;rounded=0;orthogonalLoop=1;jettySize=auto;html=1;exitX=0;exitY=0;exitDx=0;exitDy=0;entryX=0.75;entryY=1;entryDx=0;entryDy=0;endArrow=none;endFill=0;" edge="1" parent="WIyWlLk6GJQsqaUBKTNV-1" source="I_8_5JJbdPGwPO8MQidX-268" target="I_8_5JJbdPGwPO8MQidX-224">
          <mxGeometry relative="1" as="geometry" />
        </mxCell>
        <mxCell id="I_8_5JJbdPGwPO8MQidX-268" value="resumen" style="ellipse;whiteSpace=wrap;html=1;" vertex="1" parent="WIyWlLk6GJQsqaUBKTNV-1">
          <mxGeometry x="917.5" y="433.75" width="60" height="30" as="geometry" />
        </mxCell>
        <mxCell id="I_8_5JJbdPGwPO8MQidX-269" style="edgeStyle=orthogonalEdgeStyle;rounded=0;orthogonalLoop=1;jettySize=auto;html=1;entryX=0;entryY=1;entryDx=0;entryDy=0;endArrow=none;endFill=0;" edge="1" parent="WIyWlLk6GJQsqaUBKTNV-1" source="I_8_5JJbdPGwPO8MQidX-270" target="I_8_5JJbdPGwPO8MQidX-224">
          <mxGeometry relative="1" as="geometry" />
        </mxCell>
        <mxCell id="I_8_5JJbdPGwPO8MQidX-270" value="nombre" style="ellipse;whiteSpace=wrap;html=1;" vertex="1" parent="WIyWlLk6GJQsqaUBKTNV-1">
          <mxGeometry x="777.5" y="443.75" width="50" height="20" as="geometry" />
        </mxCell>
        <mxCell id="I_8_5JJbdPGwPO8MQidX-271" value="" style="edgeStyle=orthogonalEdgeStyle;rounded=0;orthogonalLoop=1;jettySize=auto;html=1;startArrow=none;startFill=0;endArrow=none;endFill=0;" edge="1" parent="WIyWlLk6GJQsqaUBKTNV-1" source="I_8_5JJbdPGwPO8MQidX-272" target="I_8_5JJbdPGwPO8MQidX-224">
          <mxGeometry relative="1" as="geometry">
            <Array as="points">
              <mxPoint x="882.5" y="493.75" />
              <mxPoint x="882.5" y="493.75" />
            </Array>
          </mxGeometry>
        </mxCell>
        <mxCell id="I_8_5JJbdPGwPO8MQidX-272" value="LIBROS" style="whiteSpace=wrap;html=1;align=center;" vertex="1" parent="WIyWlLk6GJQsqaUBKTNV-1">
          <mxGeometry x="847.5" y="503.75" width="65" height="30" as="geometry" />
        </mxCell>
        <mxCell id="I_8_5JJbdPGwPO8MQidX-273" value="hacer" style="shape=rhombus;perimeter=rhombusPerimeter;whiteSpace=wrap;html=1;align=center;" vertex="1" parent="WIyWlLk6GJQsqaUBKTNV-1">
          <mxGeometry x="1383.5" y="450" width="70" height="30" as="geometry" />
        </mxCell>
        <mxCell id="I_8_5JJbdPGwPO8MQidX-274" style="edgeStyle=orthogonalEdgeStyle;rounded=0;orthogonalLoop=1;jettySize=auto;html=1;entryX=0.5;entryY=1;entryDx=0;entryDy=0;endArrow=none;endFill=0;startArrow=ERone;startFill=0;" edge="1" parent="WIyWlLk6GJQsqaUBKTNV-1" source="I_8_5JJbdPGwPO8MQidX-218" target="I_8_5JJbdPGwPO8MQidX-273">
          <mxGeometry relative="1" as="geometry">
            <mxPoint x="1418.5" y="510" as="sourcePoint" />
            <mxPoint x="1418.5" y="420" as="targetPoint" />
          </mxGeometry>
        </mxCell>
        <mxCell id="I_8_5JJbdPGwPO8MQidX-275" value="" style="edgeStyle=orthogonalEdgeStyle;rounded=0;orthogonalLoop=1;jettySize=auto;html=1;endArrow=ERoneToMany;endFill=0;startArrow=none;startFill=0;" edge="1" parent="WIyWlLk6GJQsqaUBKTNV-1" source="I_8_5JJbdPGwPO8MQidX-277" target="I_8_5JJbdPGwPO8MQidX-229">
          <mxGeometry relative="1" as="geometry" />
        </mxCell>
        <mxCell id="I_8_5JJbdPGwPO8MQidX-276" value="" style="edgeStyle=orthogonalEdgeStyle;rounded=0;orthogonalLoop=1;jettySize=auto;html=1;endArrow=ERoneToMany;endFill=0;entryX=0.5;entryY=0;entryDx=0;entryDy=0;startArrow=none;startFill=0;" edge="1" parent="WIyWlLk6GJQsqaUBKTNV-1">
          <mxGeometry relative="1" as="geometry">
            <mxPoint x="886.5" y="360" as="sourcePoint" />
            <mxPoint x="884.5" y="383.75" as="targetPoint" />
          </mxGeometry>
        </mxCell>
        <mxCell id="I_8_5JJbdPGwPO8MQidX-277" value="crear" style="shape=rhombus;perimeter=rhombusPerimeter;whiteSpace=wrap;html=1;align=center;" vertex="1" parent="WIyWlLk6GJQsqaUBKTNV-1">
          <mxGeometry x="844" y="330" width="81" height="30" as="geometry" />
        </mxCell>
        <mxCell id="I_8_5JJbdPGwPO8MQidX-278" value="tener" style="shape=rhombus;perimeter=rhombusPerimeter;whiteSpace=wrap;html=1;align=center;" vertex="1" parent="WIyWlLk6GJQsqaUBKTNV-1">
          <mxGeometry x="977.5" y="389" width="68.5" height="30" as="geometry" />
        </mxCell>
        <mxCell id="I_8_5JJbdPGwPO8MQidX-279" value="" style="edgeStyle=orthogonalEdgeStyle;rounded=0;orthogonalLoop=1;jettySize=auto;html=1;startArrow=ERoneToMany;startFill=0;endArrow=none;endFill=0;strokeColor=#000000;entryX=1;entryY=0.5;entryDx=0;entryDy=0;exitX=0;exitY=0.75;exitDx=0;exitDy=0;" edge="1" parent="WIyWlLk6GJQsqaUBKTNV-1" source="I_8_5JJbdPGwPO8MQidX-223" target="I_8_5JJbdPGwPO8MQidX-278">
          <mxGeometry relative="1" as="geometry">
            <mxPoint x="932.5" y="403.75" as="targetPoint" />
            <mxPoint x="1098.5" y="410" as="sourcePoint" />
            <Array as="points">
              <mxPoint x="1098.5" y="404" />
            </Array>
          </mxGeometry>
        </mxCell>
        <mxCell id="I_8_5JJbdPGwPO8MQidX-280" value="&lt;br&gt;&lt;br&gt;&lt;br&gt;&lt;br&gt;" style="text;html=1;align=center;verticalAlign=middle;resizable=0;points=[];autosize=1;" vertex="1" parent="WIyWlLk6GJQsqaUBKTNV-1">
          <mxGeometry x="1110" y="590" width="20" height="60" as="geometry" />
        </mxCell>
        <mxCell id="I_8_5JJbdPGwPO8MQidX-283" value="&lt;p&gt;&lt;/p&gt;&lt;div style=&quot;text-align: justify&quot;&gt;&lt;div&gt;&lt;b&gt;Modelo Relacional&amp;nbsp; (ej. 6)&lt;/b&gt;&lt;/div&gt;&lt;div&gt;&lt;br style=&quot;text-align: center ; background-color: rgb(255 , 255 , 255)&quot;&gt;&lt;/div&gt;&lt;/div&gt;&lt;div style=&quot;text-align: justify&quot;&gt;&lt;span style=&quot;font-family: &amp;#34;whitney&amp;#34; , &amp;#34;helvetica neue&amp;#34; , &amp;#34;helvetica&amp;#34; , &amp;#34;arial&amp;#34; , sans-serif ; background-color: rgb(255 , 255 , 255)&quot;&gt;&lt;font style=&quot;font-size: 12px&quot;&gt;AUTORES (&lt;u&gt;&lt;b&gt;ID&lt;/b&gt;&lt;/u&gt;, nombre, pais)&lt;/font&gt;&lt;/span&gt;&lt;/div&gt;&lt;font style=&quot;font-size: 12px ; background-color: rgb(255 , 255 , 255)&quot;&gt;&lt;div style=&quot;text-align: justify&quot;&gt;&lt;font face=&quot;whitney, helvetica neue, helvetica, arial, sans-serif&quot; style=&quot;font-size: 12px&quot;&gt;&lt;br&gt;&lt;/font&gt;&lt;/div&gt;&lt;font face=&quot;whitney, helvetica neue, helvetica, arial, sans-serif&quot; style=&quot;font-size: 12px&quot;&gt;&lt;div style=&quot;text-align: justify&quot;&gt;CREAR (&lt;u&gt;&lt;b&gt;ID, cod_obra&lt;/b&gt;&lt;/u&gt;)&amp;nbsp;&lt;/div&gt;&lt;/font&gt;&lt;/font&gt;&lt;p&gt;&lt;/p&gt;&lt;p style=&quot;text-align: justify&quot;&gt;&lt;span style=&quot;font-family: &amp;#34;whitney&amp;#34; , &amp;#34;helvetica neue&amp;#34; , &amp;#34;helvetica&amp;#34; , &amp;#34;arial&amp;#34; , sans-serif ; background-color: rgb(255 , 255 , 255)&quot;&gt;&lt;font style=&quot;font-size: 12px&quot;&gt;&amp;nbsp;OBRAS (&lt;u&gt;&lt;b&gt;cod_obra&lt;/b&gt;&lt;/u&gt;, año, nombre, resumen)&amp;nbsp;&lt;/font&gt;&lt;/span&gt;&lt;/p&gt;&lt;p style=&quot;text-align: justify&quot;&gt;&lt;span style=&quot;font-family: &amp;#34;whitney&amp;#34; , &amp;#34;helvetica neue&amp;#34; , &amp;#34;helvetica&amp;#34; , &amp;#34;arial&amp;#34; , sans-serif ; background-color: rgb(255 , 255 , 255)&quot;&gt;&lt;font style=&quot;font-size: 12px&quot;&gt;&amp;nbsp;CD’S (&lt;b&gt;&lt;u&gt;cod_obra&lt;/u&gt;&lt;/b&gt;, num_canciones)&amp;nbsp;&lt;/font&gt;&lt;/span&gt;&lt;/p&gt;&lt;p style=&quot;text-align: justify&quot;&gt;&lt;span style=&quot;font-family: &amp;#34;whitney&amp;#34; , &amp;#34;helvetica neue&amp;#34; , &amp;#34;helvetica&amp;#34; , &amp;#34;arial&amp;#34; , sans-serif ; background-color: rgb(255 , 255 , 255)&quot;&gt;&lt;font style=&quot;font-size: 12px&quot;&gt;&amp;nbsp;LIBROS (&lt;b&gt;&lt;u&gt;cod_obra&lt;/u&gt;&lt;/b&gt;, num_paginas)&amp;nbsp;&lt;/font&gt;&lt;/span&gt;&lt;/p&gt;&lt;p style=&quot;text-align: justify&quot;&gt;&lt;span style=&quot;font-family: &amp;#34;whitney&amp;#34; , &amp;#34;helvetica neue&amp;#34; , &amp;#34;helvetica&amp;#34; , &amp;#34;arial&amp;#34; , sans-serif ; background-color: rgb(255 , 255 , 255)&quot;&gt;&lt;font style=&quot;font-size: 12px&quot;&gt;&amp;nbsp;PELICULAS (&lt;b&gt;&lt;u&gt;cod_obra&lt;/u&gt;&lt;/b&gt;, duracion)&amp;nbsp;&lt;/font&gt;&lt;/span&gt;&lt;/p&gt;&lt;p style=&quot;text-align: justify&quot;&gt;&lt;span style=&quot;font-family: &amp;#34;whitney&amp;#34; , &amp;#34;helvetica neue&amp;#34; , &amp;#34;helvetica&amp;#34; , &amp;#34;arial&amp;#34; , sans-serif ; background-color: rgb(255 , 255 , 255)&quot;&gt;&lt;font style=&quot;font-size: 12px&quot;&gt;&amp;nbsp;COPIAS (&lt;b&gt;cod_obra&lt;/b&gt;, &lt;u&gt;&lt;b&gt;num_copia&lt;/b&gt;&lt;/u&gt;, deteriorado, comentario)&amp;nbsp;&lt;/font&gt;&lt;/span&gt;&lt;/p&gt;&lt;p style=&quot;text-align: justify&quot;&gt;&lt;span style=&quot;font-family: &amp;#34;whitney&amp;#34; , &amp;#34;helvetica neue&amp;#34; , &amp;#34;helvetica&amp;#34; , &amp;#34;arial&amp;#34; , sans-serif ; background-color: rgb(255 , 255 , 255)&quot;&gt;&lt;font style=&quot;font-size: 12px&quot;&gt;&amp;nbsp;PRESTAMOS (&lt;b&gt;&lt;u&gt;id_prestamos&lt;/u&gt;&lt;/b&gt;, fecha_prestamo, fecha_devolucion, fecha_max, num_copia, cod_socio)&amp;nbsp;&lt;/font&gt;&lt;/span&gt;&lt;/p&gt;&lt;p style=&quot;text-align: justify&quot;&gt;&lt;span style=&quot;font-family: &amp;#34;whitney&amp;#34; , &amp;#34;helvetica neue&amp;#34; , &amp;#34;helvetica&amp;#34; , &amp;#34;arial&amp;#34; , sans-serif ; background-color: rgb(255 , 255 , 255)&quot;&gt;&lt;font style=&quot;font-size: 12px&quot;&gt;&amp;nbsp;SOCIOS (&lt;b&gt;&lt;u&gt;cod_socio&lt;/u&gt;&lt;/b&gt;, DNI, nombre, apellidos, direccion, telefono)&lt;/font&gt;&lt;/span&gt;&lt;/p&gt;" style="text;html=1;align=center;verticalAlign=middle;resizable=0;points=[];autosize=1;" vertex="1" parent="WIyWlLk6GJQsqaUBKTNV-1">
          <mxGeometry x="720" y="600" width="570" height="280" as="geometry" />
        </mxCell>
      </root>
    </mxGraphModel>
  </diagram>
  <diagram id="zBr7pGYvrmTsYN_YaXfJ" name="Page-2">
    <mxGraphModel dx="2253" dy="714" grid="1" gridSize="10" guides="1" tooltips="1" connect="1" arrows="1" fold="1" page="1" pageScale="1" pageWidth="827" pageHeight="1169" math="0" shadow="0">
      <root>
        <mxCell id="GVbn6I9cOlEnDLBCsZ_3-0" />
        <mxCell id="GVbn6I9cOlEnDLBCsZ_3-1" parent="GVbn6I9cOlEnDLBCsZ_3-0" />
        <mxCell id="GVbn6I9cOlEnDLBCsZ_3-2" value="&lt;blockquote style=&quot;margin: 0 0 0 40px ; border: none ; padding: 0px&quot;&gt;&lt;blockquote style=&quot;margin: 0 0 0 40px ; border: none ; padding: 0px&quot;&gt;&lt;p style=&quot;text-align: justify&quot;&gt;&lt;span style=&quot;background-color: rgba(4 , 4 , 5 , 0.07) ; font-family: &amp;#34;whitney&amp;#34; , &amp;#34;helvetica neue&amp;#34; , &amp;#34;helvetica&amp;#34; , &amp;#34;arial&amp;#34; , sans-serif ; font-size: 16px&quot;&gt;AUTORES (ID, nombre, pais)&lt;br/&gt;&lt;br/&gt;CREAR (ID, cod_obra)&amp;nbsp;&lt;/span&gt;&lt;/p&gt;&lt;p style=&quot;text-align: justify&quot;&gt;&lt;span style=&quot;background-color: rgba(4 , 4 , 5 , 0.07) ; font-family: &amp;#34;whitney&amp;#34; , &amp;#34;helvetica neue&amp;#34; , &amp;#34;helvetica&amp;#34; , &amp;#34;arial&amp;#34; , sans-serif ; font-size: 16px&quot;&gt;&amp;nbsp;OBRAS (cod_obra, año, nombre, resumen)&amp;nbsp;&lt;/span&gt;&lt;/p&gt;&lt;p style=&quot;text-align: justify&quot;&gt;&lt;span style=&quot;background-color: rgba(4 , 4 , 5 , 0.07) ; font-family: &amp;#34;whitney&amp;#34; , &amp;#34;helvetica neue&amp;#34; , &amp;#34;helvetica&amp;#34; , &amp;#34;arial&amp;#34; , sans-serif ; font-size: 16px&quot;&gt;&amp;nbsp;CD’S (cod_obra, num_canciones)&amp;nbsp;&lt;/span&gt;&lt;/p&gt;&lt;p style=&quot;text-align: justify&quot;&gt;&lt;span style=&quot;background-color: rgba(4 , 4 , 5 , 0.07) ; font-family: &amp;#34;whitney&amp;#34; , &amp;#34;helvetica neue&amp;#34; , &amp;#34;helvetica&amp;#34; , &amp;#34;arial&amp;#34; , sans-serif ; font-size: 16px&quot;&gt;&amp;nbsp;LIBROS (cod_obra, num_paginas)&amp;nbsp;&lt;/span&gt;&lt;/p&gt;&lt;p style=&quot;text-align: justify&quot;&gt;&lt;span style=&quot;background-color: rgba(4 , 4 , 5 , 0.07) ; font-family: &amp;#34;whitney&amp;#34; , &amp;#34;helvetica neue&amp;#34; , &amp;#34;helvetica&amp;#34; , &amp;#34;arial&amp;#34; , sans-serif ; font-size: 16px&quot;&gt;&amp;nbsp;PELICULAS (cod_obra, duracion)&amp;nbsp;&lt;/span&gt;&lt;/p&gt;&lt;p style=&quot;text-align: justify&quot;&gt;&lt;span style=&quot;background-color: rgba(4 , 4 , 5 , 0.07) ; font-family: &amp;#34;whitney&amp;#34; , &amp;#34;helvetica neue&amp;#34; , &amp;#34;helvetica&amp;#34; , &amp;#34;arial&amp;#34; , sans-serif ; font-size: 16px&quot;&gt;&amp;nbsp;COPIAS (cod_obra, num_copia, deteriorado, comentario)&amp;nbsp;&lt;/span&gt;&lt;/p&gt;&lt;p style=&quot;text-align: justify&quot;&gt;&lt;span style=&quot;background-color: rgba(4 , 4 , 5 , 0.07) ; font-family: &amp;#34;whitney&amp;#34; , &amp;#34;helvetica neue&amp;#34; , &amp;#34;helvetica&amp;#34; , &amp;#34;arial&amp;#34; , sans-serif ; font-size: 16px&quot;&gt;&amp;nbsp;PRESTAMOS (id_prestamos, fecha_prestamo, fecha_devolucion, fecha_max, num_copia, cod_socio)&amp;nbsp;&lt;/span&gt;&lt;/p&gt;&lt;p style=&quot;text-align: justify&quot;&gt;&lt;span style=&quot;background-color: rgba(4 , 4 , 5 , 0.07) ; font-family: &amp;#34;whitney&amp;#34; , &amp;#34;helvetica neue&amp;#34; , &amp;#34;helvetica&amp;#34; , &amp;#34;arial&amp;#34; , sans-serif ; font-size: 16px&quot;&gt;&amp;nbsp;SOCIOS (cod_socio, DNI, nombre, apellidos, direccion, telefono)&lt;/span&gt;&lt;/p&gt;&lt;/blockquote&gt;&lt;/blockquote&gt;" style="text;html=1;align=left;verticalAlign=middle;resizable=0;points=[];autosize=1;" vertex="1" parent="GVbn6I9cOlEnDLBCsZ_3-1">
          <mxGeometry x="-95" y="95" width="830" height="270" as="geometry" />
        </mxCell>
      </root>
    </mxGraphModel>
  </diagram>
</mxfile>
